<?xml version="1.0" standalone="no"?>
<!DOCTYPE svg PUBLIC "-//W3C//DTD SVG 20010904//EN"
 "http://www.w3.org/TR/2001/REC-SVG-20010904/DTD/svg10.dtd">
<svg version="1.0" xmlns="http://www.w3.org/2000/svg"
 width="512.000000pt" height="512.000000pt" viewBox="0 0 512.000000 512.000000"
 preserveAspectRatio="xMidYMid meet">

<g transform="translate(0.000000,512.000000) scale(0.100000,-0.100000)"
fill="#000000" stroke="none">
<path d="M590 3460 l0 -180 178 -2 177 -3 3 -177 2 -178 178 -2 177 -3 3 -177
2 -178 175 0 175 0 0 -180 0 -180 180 0 180 0 0 -180 0 -180 180 0 180 0 2
-177 3 -178 175 0 175 0 3 178 2 177 180 0 180 0 0 180 0 180 180 0 180 0 0
180 0 180 175 0 175 0 2 178 3 177 177 3 178 2 2 178 3 177 178 3 177 2 0 180
0 180 -357 -2 -358 -3 -3 -177 -2 -178 -175 0 -175 0 0 -180 0 -180 -180 0
-180 0 0 -180 0 -180 -180 0 -180 0 0 -180 0 -180 -180 0 -180 0 0 180 0 180
-180 0 -180 0 0 180 0 180 -180 0 -180 0 0 180 0 180 -175 0 -175 0 -2 178 -3
177 -357 3 -358 2 0 -180z"/>
</g>
</svg>
