<?xml version="1.0" standalone="no"?>
<!DOCTYPE svg PUBLIC "-//W3C//DTD SVG 20010904//EN"
 "http://www.w3.org/TR/2001/REC-SVG-20010904/DTD/svg10.dtd">
<svg version="1.0" xmlns="http://www.w3.org/2000/svg"
 width="512.000000pt" height="512.000000pt" viewBox="0 0 512.000000 512.000000"
 preserveAspectRatio="xMidYMid meet">

<g transform="translate(0.000000,512.000000) scale(0.100000,-0.100000)"
fill="#000000" stroke="none">
<path d="M1019 4266 c-2 -2 -3 -259 -1 -570 l2 -566 80 0 80 0 0 -80 0 -80 80
0 80 0 0 -79 0 -78 38 -7 c20 -3 56 -6 80 -6 l42 0 0 -80 0 -80 85 0 85 0 0
-80 0 -80 160 0 160 0 0 -165 0 -165 -80 0 -80 0 0 -80 0 -80 -165 0 -165 0 0
-80 0 -79 83 -3 82 -3 3 -77 3 -77 -83 -3 -83 -3 -3 -82 -3 -83 -79 0 -80 0 0
-80 0 -80 -166 0 c-147 0 -165 -2 -160 -16 3 -9 6 -45 6 -80 l0 -64 80 0 80 0
0 -86 0 -87 40 6 c22 3 58 3 80 0 l40 -6 0 -78 0 -79 80 0 80 0 0 165 0 165
85 0 85 0 0 80 0 80 80 0 80 0 0 80 0 80 80 0 80 0 0 -80 0 -80 80 0 80 0 0
165 0 165 85 0 85 0 0 80 0 80 80 0 80 0 0 80 0 80 80 0 80 0 0 -80 0 -80 80
0 80 0 0 -80 0 -80 85 0 85 0 0 -165 0 -165 80 0 80 0 0 80 0 80 80 0 80 0 0
-80 0 -80 80 0 80 0 0 -80 0 -80 85 0 85 0 0 -165 0 -165 80 0 80 0 0 79 0 78
40 6 c22 3 58 3 80 0 l40 -6 0 87 0 86 79 0 79 0 4 80 3 80 -162 0 -163 0 0
80 0 80 -80 0 -79 0 -3 83 -3 82 -83 3 -83 3 3 77 3 77 83 3 82 3 0 79 0 80
-165 0 -165 0 0 80 0 80 -80 0 -80 0 0 165 0 165 160 0 160 0 0 80 0 80 85 0
85 0 0 80 0 80 43 0 c23 0 59 3 80 6 l37 7 0 78 0 79 80 0 80 0 0 80 0 80 80
0 80 0 0 570 0 570 -80 0 -80 0 0 -80 0 -80 -80 0 -80 0 0 -85 0 -85 -80 0
-80 0 0 -80 0 -80 -85 0 -85 0 0 -80 0 -80 -80 0 -80 0 0 -85 0 -85 -80 0 -80
0 0 -80 0 -80 -80 0 -80 0 0 -80 0 -80 -85 0 -85 0 0 -80 0 -80 -80 0 -80 0 0
-85 0 -86 83 3 82 3 3 83 3 82 79 0 80 0 0 80 0 80 80 0 80 0 0 80 0 80 80 0
80 0 0 80 0 79 83 3 82 3 3 77 3 77 77 3 77 3 3 83 3 82 79 0 80 0 0 80 0 80
80 0 80 0 0 -405 0 -405 -80 0 -80 0 0 -80 0 -80 -80 0 -80 0 0 -85 0 -85 -85
0 -85 0 0 -80 0 -80 -160 0 -160 0 0 -80 0 -80 -80 0 -80 0 0 -80 0 -80 -162
-2 -163 -3 -3 -82 -3 -83 -79 0 -80 0 0 -80 0 -80 -80 0 -80 0 0 -80 0 -80
-85 0 -85 0 0 -80 0 -80 -160 0 -160 0 0 160 0 160 80 0 80 0 0 80 0 79 83 3
82 3 3 77 3 77 77 3 77 3 3 83 3 82 79 0 80 0 0 75 0 75 75 0 75 0 0 80 0 80
-80 0 -80 0 0 -75 0 -75 -80 0 -79 0 6 -80 6 -80 -167 0 -166 0 0 80 0 80
-160 0 -160 0 0 80 0 80 -85 0 -85 0 0 85 0 85 -80 0 -80 0 0 80 0 80 -80 0
-80 0 0 405 0 405 80 0 80 0 0 -80 0 -80 80 0 79 0 3 -82 3 -83 77 -3 77 -3 3
-77 3 -77 83 -3 82 -3 0 -79 0 -80 80 0 80 0 0 -80 0 -80 80 0 80 0 0 -80 0
-80 80 0 79 0 3 -82 3 -83 83 -3 82 -3 0 86 0 85 -80 0 -80 0 0 80 0 80 -86 0
-87 0 6 80 6 80 -84 0 -85 0 0 80 0 80 -80 0 -80 0 0 85 0 85 -80 0 -80 0 0
80 0 80 -85 0 -85 0 0 80 0 80 -80 0 -80 0 0 85 0 85 -80 0 -80 0 0 80 0 80
-78 0 c-43 0 -81 -2 -83 -4z m2111 -2196 l0 -80 80 0 80 0 0 -160 0 -160 -160
0 -160 0 0 80 0 80 -85 0 -85 0 0 80 0 80 -80 0 -80 0 0 80 0 80 245 0 245 0
0 -80z"/>
</g>
</svg>
