<?xml version="1.0" standalone="no"?>
<!DOCTYPE svg PUBLIC "-//W3C//DTD SVG 20010904//EN"
 "http://www.w3.org/TR/2001/REC-SVG-20010904/DTD/svg10.dtd">
<svg version="1.0" xmlns="http://www.w3.org/2000/svg"
 width="512.000000pt" height="512.000000pt" viewBox="0 0 512.000000 512.000000"
 preserveAspectRatio="xMidYMid meet">

<g transform="translate(0.000000,512.000000) scale(0.100000,-0.100000)"
fill="#000000" stroke="none">
<path d="M2439 4145 c-394 -100 -543 -571 -275 -871 105 -119 234 -176 396
-176 210 0 386 110 476 296 43 90 57 161 52 266 -12 218 -151 400 -358 470
-82 28 -214 35 -291 15z"/>
<path d="M1000 3729 c-150 -16 -294 -102 -376 -227 -142 -213 -118 -485 58
-668 234 -244 637 -208 824 73 115 174 118 407 6 579 -116 177 -299 264 -512
243z"/>
<path d="M3978 3728 c-259 -31 -458 -258 -458 -523 0 -151 51 -274 155 -379
208 -207 544 -207 750 1 209 211 208 545 -4 753 -120 118 -271 169 -443 148z"/>
<path d="M2200 2865 c-306 -63 -542 -310 -590 -615 -8 -52 -10 -250 -8 -652
l3 -578 28 -27 27 -28 900 0 900 0 27 28 28 27 0 618 c0 692 2 667 -75 827
-91 188 -264 330 -477 392 -79 23 -662 29 -763 8z"/>
<path d="M717 2435 c-193 -54 -338 -206 -382 -400 -13 -60 -15 -140 -13 -542
l3 -473 28 -27 27 -28 508 -3 507 -3 0 668 c0 615 1 673 18 732 13 47 15 67 7
75 -17 17 -641 19 -703 1z"/>
<path d="M3725 2441 c-35 -8 -35 -11 -11 -126 15 -71 16 -152 14 -718 l-3
-638 507 3 508 3 27 28 28 27 3 475 c3 530 1 552 -63 674 -60 114 -166 207
-290 254 -57 21 -75 22 -375 24 -173 0 -328 -2 -345 -6z"/>
</g>
</svg>
