<?xml version="1.0" standalone="no"?>
<!DOCTYPE svg PUBLIC "-//W3C//DTD SVG 20010904//EN"
 "http://www.w3.org/TR/2001/REC-SVG-20010904/DTD/svg10.dtd">
<svg version="1.0" xmlns="http://www.w3.org/2000/svg"
 width="512.000000pt" height="512.000000pt" viewBox="0 0 512.000000 512.000000"
 preserveAspectRatio="xMidYMid meet">

<g transform="translate(0.000000,512.000000) scale(0.100000,-0.100000)"
fill="#000000" stroke="none">
<path d="M2050 4480 l0 -130 -255 0 -255 0 0 -125 0 -125 -257 -2 -258 -3 -3
-257 -2 -258 -125 0 -125 0 0 -255 0 -255 -130 0 -130 0 0 -510 0 -510 130 0
130 0 0 -255 0 -255 125 0 125 0 2 -257 3 -258 258 -3 257 -2 0 -125 0 -125
255 0 255 0 0 -130 0 -130 510 0 510 0 0 130 0 130 255 0 255 0 0 125 0 125
258 2 257 3 3 258 2 257 125 0 125 0 0 255 0 255 130 0 130 0 0 510 0 510
-130 0 -130 0 0 255 0 255 -125 0 -125 0 -2 258 -3 257 -257 3 -258 2 0 125 0
125 -255 0 -255 0 0 130 0 130 -510 0 -510 0 0 -130z m1020 -510 l0 -130 255
0 254 0 3 -127 3 -128 128 -3 127 -3 0 -254 0 -255 130 0 130 0 0 -510 0 -510
-130 0 -130 0 0 -255 0 -254 -127 -3 -128 -3 -3 -127 -3 -128 -254 0 -255 0 0
-130 0 -130 -510 0 -510 0 0 130 0 130 -255 0 -254 0 -3 128 -3 127 -127 3
-128 3 0 254 0 255 -130 0 -130 0 0 510 0 510 130 0 130 0 0 255 0 254 128 3
127 3 3 128 3 127 254 0 255 0 0 130 0 130 510 0 510 0 0 -130z"/>
<path d="M2302 3328 l3 -253 255 0 255 0 3 253 2 252 -260 0 -260 0 2 -252z"/>
<path d="M2307 2814 c-4 -4 -7 -292 -7 -641 l0 -633 260 0 260 0 -2 638 -3
637 -251 3 c-138 1 -253 -1 -257 -4z"/>
</g>
</svg>
