<?xml version="1.0" standalone="no"?>
<!DOCTYPE svg PUBLIC "-//W3C//DTD SVG 20010904//EN"
 "http://www.w3.org/TR/2001/REC-SVG-20010904/DTD/svg10.dtd">
<svg version="1.0" xmlns="http://www.w3.org/2000/svg"
 width="512.000000pt" height="512.000000pt" viewBox="0 0 512.000000 512.000000"
 preserveAspectRatio="xMidYMid meet">

<g transform="translate(0.000000,512.000000) scale(0.100000,-0.100000)"
fill="#000000" stroke="none">
<path d="M970 3830 l0 -320 -155 0 -155 0 0 -1110 0 -1110 155 0 155 0 0 -160
0 -160 1590 0 1590 0 0 160 0 160 155 0 155 0 0 1110 0 1110 -790 0 -790 0 0
160 0 160 -160 0 -160 0 0 160 0 160 -795 0 -795 0 0 -320z m1590 -160 l0
-160 -635 0 -635 0 0 160 0 160 635 0 635 0 0 -160z m1590 -1430 l0 -950
-1590 0 -1590 0 0 950 0 950 1590 0 1590 0 0 -950z"/>
</g>
</svg>
