<?xml version="1.0" encoding="UTF-8"?>
<!--Generator: Apple Native CoreSVG 341-->
<!DOCTYPE svg
PUBLIC "-//W3C//DTD SVG 1.1//EN"
       "http://www.w3.org/Graphics/SVG/1.1/DTD/svg11.dtd">
<svg version="1.1" xmlns="http://www.w3.org/2000/svg" xmlns:xlink="http://www.w3.org/1999/xlink" viewBox="0 0 1479.49 1147.95">
 <g>
  <rect height="1147.95" opacity="0" width="1479.49" x="0" y="0"/>
  <path d="M472.656 1079.1L557.129 1079.1L557.129 68.8477L472.656 68.8477ZM254.395 1147.95L1237.3 1147.95C1390.14 1147.95 1479.49 1054.69 1479.49 894.043L1479.49 254.395C1479.49 93.2617 1390.14 0 1237.3 0L254.395 0C93.2617 0 0 93.2617 0 254.395L0 894.043C0 1054.69 93.2617 1147.95 254.395 1147.95ZM254.883 1061.52C148.926 1061.52 86.4258 999.023 86.4258 893.066L86.4258 254.883C86.4258 148.926 148.926 86.4258 254.883 86.4258L1224.61 86.4258C1330.57 86.4258 1392.58 148.926 1392.58 254.883L1392.58 893.066C1392.58 999.023 1330.57 1061.52 1224.61 1061.52ZM352.051 321.777C369.141 321.777 383.789 306.641 383.789 290.527C383.789 273.438 369.141 259.277 352.051 259.277L208.496 259.277C191.406 259.277 176.758 273.438 176.758 290.527C176.758 306.641 191.406 321.777 208.496 321.777ZM352.051 486.816C369.141 486.816 383.789 472.168 383.789 455.566C383.789 438.965 369.141 424.805 352.051 424.805L208.496 424.805C191.406 424.805 176.758 438.965 176.758 455.566C176.758 472.168 191.406 486.816 208.496 486.816ZM352.051 651.855C369.141 651.855 383.789 637.695 383.789 621.094C383.789 604.492 369.141 590.332 352.051 590.332L208.496 590.332C191.406 590.332 176.758 604.492 176.758 621.094C176.758 637.695 191.406 651.855 208.496 651.855Z" fill="black" fill-opacity="0.85"/>
 </g>
</svg>
